<?xml version="1.0" encoding="iso-8859-1"?>
<!-- Generator: Adobe Illustrator 17.1.0, SVG Export Plug-In . SVG Version: 6.00 Build 0)  -->
<!DOCTYPE svg PUBLIC "-//W3C//DTD SVG 1.1//EN" "http://www.w3.org/Graphics/SVG/1.1/DTD/svg11.dtd">
<svg version="1.1" id="Capa_1" xmlns="http://www.w3.org/2000/svg" xmlns:xlink="http://www.w3.org/1999/xlink" x="0px" y="0px"
	 viewBox="0 0 313.406 313.406" style="enable-background:new 0 0 313.406 313.406;" xml:space="preserve">
<g>
	<path style="fill:#222220;" d="M305.455,215.301L188.97,64.246c-1.96-2.541-5.321-3.557-8.358-2.519
		c-3.038,1.035-5.081,3.889-5.081,7.099v163.499c0,20.177,29.637,35.393,68.938,35.393c39.301,0,68.938-15.216,68.938-35.393
		C313.406,226.071,310.554,220.296,305.455,215.301z M274.971,200.335c-9.1-2.191-19.416-3.403-30.502-3.403
		c-22.318,0-41.511,4.911-53.938,12.846V90.834L274.971,200.335z M244.469,252.718c-32.926,0-53.938-12.078-53.938-20.393
		c0-8.315,21.013-20.394,53.938-20.394s53.938,12.078,53.938,20.394C298.406,240.64,277.395,252.718,244.469,252.718z"/>
	<path style="fill:#222220;" d="M158.73,26.702c-0.033-3.324-2.251-6.23-5.449-7.14c-3.195-0.909-6.612,0.396-8.39,3.205
		L6.735,241.252C2.316,245.994,0,251.281,0,256.883c0,11.197,9.252,21.134,26.051,27.979c14.665,5.977,34.002,9.268,54.448,9.268
		c20.447,0,39.784-3.291,54.449-9.268c16.424-6.693,25.609-16.344,26.012-27.236c0.015-0.154,0.019-0.312,0.024-0.469
		c0.001-0.092,0.014-0.183,0.014-0.275c0-0.011-0.002-0.021-0.002-0.033c0-0.014,0.002-0.027,0.002-0.042L158.73,26.702z
		 M145.776,234.39c-3.155-1.991-6.766-3.831-10.828-5.486c-14.665-5.977-34.002-9.268-54.449-9.268
		c-16.897,0-33.028,2.253-46.399,6.407L143.981,52.274L145.776,234.39z M80.499,279.13C40.516,279.13,15,265.954,15,256.883
		c0-1.64,0.846-3.415,2.449-5.222c0.427-0.351,0.821-0.751,1.17-1.204c8.362-7.824,30.728-15.822,61.88-15.822
		c39.97,0,65.481,13.167,65.499,22.237l0,0.018C145.984,265.962,120.472,279.13,80.499,279.13z"/>
</g>
<g>
</g>
<g>
</g>
<g>
</g>
<g>
</g>
<g>
</g>
<g>
</g>
<g>
</g>
<g>
</g>
<g>
</g>
<g>
</g>
<g>
</g>
<g>
</g>
<g>
</g>
<g>
</g>
<g>
</g>
</svg>
