<?xml version="1.0" encoding="iso-8859-1"?>
<!-- Generator: Adobe Illustrator 19.0.0, SVG Export Plug-In . SVG Version: 6.00 Build 0)  -->
<svg version="1.1" id="Layer_1" xmlns="http://www.w3.org/2000/svg" xmlns:xlink="http://www.w3.org/1999/xlink" x="0px" y="0px"
	 viewBox="0 0 488 488" style="enable-background:new 0 0 488 488;" xml:space="preserve">
<g transform="translate(0 -540.36)">
	<g>
		<g>
			<path d="M142.547,676.588v199.441c0,5.501,4.501,10.002,10.002,10.002h199.431l27.604,27.606c2,2,4.501,2.901,7.101,2.901
				s5.101-1,7.101-2.901c3.701-4.001,3.701-10.302-0.2-14.203v0L159.55,665.386l-30.505-30.506c-3.901-3.901-10.202-3.901-14.102,0
				c-3.901,3.901-3.901,10.202,0,14.103L142.547,676.588z M162.45,696.592l169.426,169.435H213.558v-41.108
				c0-5.501-4.501-10.002-10.002-10.002H162.45V696.592z M162.45,834.92h31.105v31.106H162.45V834.92z"/>
			<path d="M487.9,987.052c0-0.2-0.1-0.5-0.1-0.7c0-0.1,0-0.2,0-0.2c-0.1-0.3-0.1-0.6-0.2-0.9v-0.1c-0.1-0.3-0.2-0.6-0.3-0.8v-0.1
				c-0.1-0.3-0.2-0.5-0.4-0.8c0,0,0-0.1-0.1-0.1c-0.1-0.2-0.3-0.5-0.4-0.7c0-0.1-0.1-0.1-0.1-0.2c-0.1-0.2-0.3-0.4-0.4-0.6
				c0-0.1-0.1-0.1-0.1-0.2c-0.2-0.2-0.4-0.5-0.6-0.7l-30.505-30.506c-3.901-3.901-10.202-3.901-14.102,0
				c-3.901,3.901-3.901,10.202,0,14.103l13.402,13.403H50.433V574.467l13.402,13.403c2,2,4.501,2.901,7.101,2.901
				s5.101-1,7.101-2.901c3.901-3.901,3.901-10.202,0-14.103l-30.505-30.507l-0.1-0.1c-0.2-0.2-0.4-0.4-0.6-0.6
				c-0.1-0.1-0.2-0.2-0.4-0.3c-0.1-0.1-0.3-0.2-0.4-0.3c-0.1-0.1-0.3-0.2-0.4-0.2c-0.1-0.1-0.3-0.2-0.4-0.3
				c-0.1-0.1-0.3-0.1-0.4-0.2c-0.2-0.1-0.3-0.2-0.5-0.2c-0.1-0.1-0.3-0.1-0.4-0.1c-0.2-0.1-0.4-0.1-0.5-0.2c-0.1,0-0.3-0.1-0.4-0.1
				c-0.2,0-0.4-0.1-0.6-0.1c-0.1,0-0.3,0-0.4-0.1c-0.2,0-0.4-0.1-0.6-0.1c-0.2,0-0.4,0-0.7,0c-0.1,0-0.2,0-0.3,0c-0.1,0-0.2,0-0.3,0
				c-0.2,0-0.5,0-0.7,0c-0.2,0-0.4,0.1-0.5,0.1s-0.3,0-0.4,0.1c-0.2,0-0.4,0.1-0.6,0.1c-0.1,0-0.3,0.1-0.4,0.1
				c-0.2,0.1-0.3,0.1-0.5,0.2c-0.1,0.1-0.3,0.1-0.4,0.2c-0.2,0.1-0.3,0.1-0.5,0.2c-0.1,0.1-0.3,0.1-0.4,0.2
				c-0.1,0.1-0.3,0.2-0.4,0.2c-0.1,0.1-0.3,0.2-0.4,0.3s-0.3,0.2-0.4,0.3c-0.1,0.1-0.2,0.2-0.4,0.3c-0.2,0.2-0.5,0.4-0.7,0.6
				L2.925,573.767c-3.901,3.901-3.901,10.202,0,14.103c3.901,3.901,10.202,3.901,14.102,0l13.402-13.403v413.485
				c0,5.501,4.501,10.002,10.002,10.002h413.464l-13.402,13.403c-3.901,3.901-3.901,10.202,0,14.103c2,2,4.501,2.901,7.101,2.901
				s5.101-1,7.101-2.901l30.505-30.506l0.1-0.1c0.1-0.1,0.3-0.2,0.4-0.4c0.1-0.1,0.1-0.2,0.2-0.2c0.1-0.2,0.3-0.4,0.4-0.6
				c0-0.1,0.1-0.1,0.1-0.2c0.1-0.2,0.3-0.4,0.4-0.7c0,0,0-0.1,0.1-0.1c0.1-0.2,0.3-0.5,0.4-0.8v-0.1c0.1-0.3,0.2-0.5,0.3-0.8v-0.1
				c0.1-0.3,0.2-0.6,0.2-0.8c0-0.1,0-0.2,0-0.3c0-0.2,0.1-0.5,0.1-0.7c0-0.3,0.1-0.7,0.1-1C488,987.752,488,987.352,487.9,987.052z"
				/>
		</g>
	</g>
</g>
<g>
</g>
<g>
</g>
<g>
</g>
<g>
</g>
<g>
</g>
<g>
</g>
<g>
</g>
<g>
</g>
<g>
</g>
<g>
</g>
<g>
</g>
<g>
</g>
<g>
</g>
<g>
</g>
<g>
</g>
</svg>
