<?xml version="1.0" standalone="no"?>
<!DOCTYPE svg PUBLIC "-//W3C//DTD SVG 20010904//EN"
 "http://www.w3.org/TR/2001/REC-SVG-20010904/DTD/svg10.dtd">
<svg version="1.0" xmlns="http://www.w3.org/2000/svg"
 width="512.000000pt" height="512.000000pt" viewBox="0 0 512.000000 512.000000"
 preserveAspectRatio="xMidYMid meet">
<metadata>
Created by potrace 1.15, written by Peter Selinger 2001-2017
</metadata>
<g transform="translate(0.000000,512.000000) scale(0.100000,-0.100000)"
fill="#000000" stroke="none">
<path d="M2465 5101 c-16 -10 -204 -194 -416 -407 -306 -308 -389 -397 -399
-428 -28 -87 13 -186 92 -225 41 -19 61 -21 246 -21 l202 0 0 -723 0 -724
-547 -313 c-302 -173 -562 -322 -579 -332 l-32 -19 -98 172 c-84 145 -105 174
-140 195 -83 49 -180 39 -247 -24 -42 -40 -50 -59 -105 -262 -234 -862 -234
-863 -229 -913 8 -60 38 -111 86 -142 20 -13 90 -38 156 -55 115 -30 591 -159
818 -221 59 -16 122 -29 140 -29 121 0 207 90 207 216 0 31 -20 74 -99 211
-70 122 -96 175 -87 181 29 23 1115 642 1126 642 11 0 1097 -619 1126 -642 9
-6 -17 -59 -87 -181 -79 -137 -99 -180 -99 -211 0 -126 86 -216 207 -216 18 0
81 13 140 29 227 62 703 191 818 221 132 35 182 61 214 114 45 73 42 101 -59
471 -219 810 -197 740 -247 787 -67 63 -164 73 -247 24 -35 -21 -56 -50 -140
-195 l-98 -172 -32 19 c-17 10 -277 159 -578 332 l-548 313 0 724 0 723 202 0
c185 0 205 2 246 21 79 39 120 138 92 225 -10 31 -93 121 -404 432 -215 216
-403 400 -418 408 -40 21 -146 18 -183 -5z"/>
</g>
</svg>
