<?xml version="1.0" encoding="iso-8859-1"?>
<!-- Generator: Adobe Illustrator 18.0.0, SVG Export Plug-In . SVG Version: 6.00 Build 0)  -->
<!DOCTYPE svg PUBLIC "-//W3C//DTD SVG 1.1//EN" "http://www.w3.org/Graphics/SVG/1.1/DTD/svg11.dtd">
<svg version="1.1" id="Capa_1" xmlns="http://www.w3.org/2000/svg" xmlns:xlink="http://www.w3.org/1999/xlink" x="0px" y="0px"
	 viewBox="0 0 494.728 494.728" style="enable-background:new 0 0 494.728 494.728;" xml:space="preserve">
<g>
	<path d="M416.78,400.317c-49.15,18.248-127.418,21.053-169.418,21.053c-41.996,0-120.265-2.805-169.415-21.053
		c-12.494,5.398-19.707,11.465-19.707,17.893v28.88c0,22.344,84.699,40.463,189.122,40.463c104.475,0,189.125-18.119,189.125-40.463
		v-28.88C436.488,411.782,429.271,405.716,416.78,400.317z"/>
	<path d="M416.78,309.983c-49.15,18.246-127.418,21.053-169.418,21.053c-41.996,0-120.265-2.807-169.415-21.053
		c-12.494,5.404-19.707,11.465-19.707,17.9v28.881c0,22.333,84.699,40.463,189.122,40.463c104.475,0,189.125-18.13,189.125-40.463
		v-28.881C436.488,321.448,429.271,315.388,416.78,309.983z"/>
	<path d="M399.034,213.463l-42.938,19.246c-3.617,1.618-7.435,2.444-11.363,2.444c-10.939,0-20.889-6.443-25.353-16.416
		l-8.645-19.256l-4.404-9.837c-0.908,1.28-1.666,2.64-2.793,3.779l-5.203,5.203l-31.342,31.355
		c-5.252,5.233-12.229,8.111-19.631,8.111c-7.418,0-14.381-2.885-19.646-8.136l-31.338-31.322l-5.203-5.203
		c-1.131-1.131-1.885-2.492-2.799-3.764l-4.398,9.813l-8.629,19.256c-4.466,9.973-14.414,16.416-25.354,16.416
		c-3.928,0-7.744-0.826-11.348-2.438l-42.938-19.253c-23.436,6.735-37.469,15.05-37.469,24.087v28.881
		c0,22.342,84.699,40.463,189.122,40.463c104.475,0,189.125-18.121,189.125-40.463V237.55
		C436.488,228.513,422.45,220.198,399.034,213.463z"/>
	<path d="M239.097,218.58c2.275,2.277,5.279,3.418,8.266,3.418c2.988,0,5.975-1.141,8.268-3.418l36.525-36.535
		c3.334-3.34,4.342-8.361,2.533-12.731c-1.809-4.37-6.07-7.214-10.797-7.214h-20.465v-16.095V23.269
		c0-8.888-7.197-16.095-16.094-16.095c-8.896,0-16.094,7.207-16.094,16.095v122.735v16.095h-20.434
		c-4.717,0-8.977,2.844-10.781,7.214c-1.822,4.37-0.818,9.392,2.529,12.738L239.097,218.58z"/>
	<path d="M477.132,59.19c-66.482,6.187-103.527,48.732-122.926,82.987c-2.828,4.99-5.402,9.863-7.512,14.366l-18.969-7.231
		c-1.354-0.519-2.766-0.762-4.166-0.762c-3.143,0-6.221,1.273-8.488,3.664c-3.236,3.432-4.084,8.484-2.15,12.793l21.139,47.144
		c1.949,4.337,6.209,6.907,10.674,6.907c1.586,0,3.203-0.331,4.76-1.03l47.137-21.132c4.305-1.933,7.027-6.271,6.898-10.993
		c-0.139-4.723-3.113-8.895-7.525-10.578l-18.971-7.23c2.199-4.493,4.727-9.257,7.793-14.248
		c16.441-26.853,45.879-58.004,95.291-62.608c8.85-0.825,15.357-8.668,14.543-17.517C493.827,64.865,485.79,58.43,477.132,59.19z"/>
	<path d="M110.137,153.755c3.033,4.998,5.551,9.774,7.716,14.277l-19.126,7.293c-4.418,1.683-7.389,5.855-7.527,10.578
		c-0.127,4.723,2.59,9.061,6.898,10.993l47.137,21.132c1.558,0.699,3.176,1.03,4.76,1.03c4.467,0,8.727-2.57,10.674-6.907
		l21.138-47.144c1.934-4.309,1.088-9.361-2.15-12.793c-2.266-2.391-5.345-3.664-8.486-3.664c-1.399,0-2.813,0.243-4.165,0.762
		l-18.971,7.231c-2.107-4.503-4.684-9.368-7.516-14.366C121.125,107.93,84.079,65.377,17.598,59.19
		C8.871,58.413,0.902,64.865,0.069,73.722c-0.813,8.85,5.689,16.692,14.539,17.517C64.448,95.884,93.809,126.925,110.137,153.755z"
		/>
</g>
<g>
</g>
<g>
</g>
<g>
</g>
<g>
</g>
<g>
</g>
<g>
</g>
<g>
</g>
<g>
</g>
<g>
</g>
<g>
</g>
<g>
</g>
<g>
</g>
<g>
</g>
<g>
</g>
<g>
</g>
</svg>
