<svg height="512pt" viewBox="0 0 512 512" width="512pt" xmlns="http://www.w3.org/2000/svg"><path d="m256 113.589844c-77.425781 0-140.414062 62.988281-140.414062 140.414062 0 77.421875 62.988281 140.410156 140.414062 140.410156s140.414062-62.988281 140.414062-140.410156c0-77.425781-62.988281-140.414062-140.414062-140.414062zm0 250.824218v-220.824218c60.882812 0 110.414062 49.53125 110.414062 110.414062 0 60.878906-49.53125 110.410156-110.414062 110.410156zm0 0"/><path d="m256 426c-8.285156 0-15 6.71875-15 15v56c0 8.285156 6.714844 15 15 15s15-6.714844 15-15v-56c0-8.28125-6.714844-15-15-15zm0 0"/><path d="m497 241h-54.011719c-8.285156 0-15 6.71875-15 15 0 8.285156 6.714844 15 15 15h54.011719c8.285156 0 15-6.714844 15-15 0-8.28125-6.714844-15-15-15zm0 0"/><path d="m84.011719 256c0-8.28125-6.714844-15-15-15h-54.011719c-8.285156 0-15 6.71875-15 15 0 8.285156 6.714844 15 15 15h54.011719c8.285156 0 15-6.714844 15-15zm0 0"/><path d="m418.839844 176.996094c2.546875 0 5.125-.648438 7.488281-2.011719l45.882813-26.492187c7.175781-4.140626 9.632812-13.316407 5.492187-20.488282-4.144531-7.175781-13.316406-9.636718-20.492187-5.492187l-45.882813 26.492187c-7.175781 4.140625-9.632813 13.316406-5.492187 20.488282 2.777343 4.816406 7.820312 7.503906 13.003906 7.503906zm0 0"/><path d="m87.410156 336.015625-46.785156 27.011719c-7.171875 4.140625-9.632812 13.316406-5.488281 20.488281 2.777343 4.8125 7.820312 7.503906 13.003906 7.503906 2.542969 0 5.125-.648437 7.484375-2.011719l46.785156-27.011718c7.175782-4.140625 9.632813-13.316406 5.488282-20.488282-4.140626-7.175781-13.3125-9.636718-20.488282-5.492187zm0 0"/><path d="m170.851562 403.480469c-7.171874-4.144531-16.347656-1.683594-20.488281 5.488281l-27.007812 46.773438c-4.140625 7.175781-1.683594 16.351562 5.492187 20.492187 2.363282 1.363281 4.941406 2.011719 7.484375 2.011719 5.183594 0 10.226563-2.691406 13.003907-7.503906l27.007812-46.773438c4.140625-7.171875 1.683594-16.347656-5.492188-20.488281zm0 0"/><path d="m38.894531 147.976562 46.78125 27.007813c2.359375 1.363281 4.9375 2.011719 7.484375 2.011719 5.183594 0 10.226563-2.6875 13.003906-7.5 4.140626-7.175782 1.683594-16.351563-5.488281-20.492188l-46.78125-27.007812c-7.175781-4.144532-16.347656-1.683594-20.488281 5.492187-4.144531 7.171875-1.683594 16.347657 5.488281 20.488281zm0 0"/><path d="m472.210938 363.511719-47.617188-27.492188c-7.171875-4.144531-16.347656-1.683593-20.488281 5.488281-4.140625 7.175782-1.683594 16.347657 5.488281 20.492188l47.617188 27.492188c2.363281 1.363281 4.941406 2.011718 7.488281 2.011718 5.183593 0 10.226562-2.691406 13.003906-7.503906 4.140625-7.171875 1.683594-16.347656-5.492187-20.488281zm0 0"/><path d="m361.640625 408.976562c-4.140625-7.175781-13.316406-9.632812-20.488281-5.488281-7.175782 4.140625-9.632813 13.3125-5.492188 20.488281l27.003906 46.769532c2.777344 4.8125 7.820313 7.5 13.003907 7.5 2.542969 0 5.121093-.644532 7.484375-2.011719 7.175781-4.140625 9.632812-13.316406 5.492187-20.488281zm0 0"/><path d="m256 84c8.285156 0 15-6.714844 15-15v-54c0-8.285156-6.714844-15-15-15s-15 6.714844-15 15v54c0 8.285156 6.714844 15 15 15zm0 0"/><path d="m341.148438 106.519531c2.359374 1.367188 4.941406 2.015625 7.484374 2.015625 5.183594 0 10.226563-2.691406 13.003907-7.503906l27.007812-46.773438c4.140625-7.175781 1.683594-16.351562-5.492187-20.492187-7.175782-4.144531-16.347656-1.683594-20.488282 5.492187l-27.007812 46.773438c-4.140625 7.175781-1.683594 16.347656 5.492188 20.488281zm0 0"/><path d="m150.359375 101.023438c2.777344 4.8125 7.820313 7.503906 13.003906 7.503906 2.542969 0 5.125-.648438 7.484375-2.011719 7.175782-4.144531 9.632813-13.316406 5.492188-20.492187l-27.003906-46.765626c-4.140626-7.175781-13.316407-9.636718-20.488282-5.492187-7.175781 4.140625-9.632812 13.316406-5.492187 20.492187zm0 0"/></svg>