<svg id="Capa_1" enable-background="new 0 0 511.999 511.999" height="512" viewBox="0 0 511.999 511.999" width="512" xmlns="http://www.w3.org/2000/svg"><path d="m15 148.066h174v28.558c0 .937.097 1.85.261 2.739h133.478c.167-.898.261-1.813.261-2.739v-50c0-30.327-24.673-55-55-55h-24c-27.416 0-50.207 20.165-54.33 46.441h-174.67c-8.284 0-15 6.716-15 15s6.716 15.001 15 15.001z"/><path d="m121.665 212.901-56.239 47.474h391.975l-55.865-47.444c-2.712-2.303-6.152-3.567-9.71-3.567h-260.485c-3.542-.001-6.969 1.253-9.676 3.537z"/><path d="m498.405 308.146-.678-.794c-9.481-11.106-21.775-16.977-35.553-16.977h-412.349c-13.777 0-26.071 5.871-35.553 16.977l-.679.794c-9.205 10.784-13.9 24.394-13.577 39.36.324 15.005 5.628 28.368 15.336 38.645l29.036 30.731c14.521 15.369 33.371 23.493 54.516 23.493h139.013 36.166 139.013c21.145 0 39.995-8.124 54.516-23.493l29.036-30.732c9.708-10.275 15.012-23.639 15.336-38.644.324-14.964-4.372-28.574-13.579-39.36zm-392.405 72.229c-8.262 0-15-6.738-15-15s6.738-15 15-15 15 6.738 15 15c0 8.261-6.738 15-15 15zm60 0c-8.262 0-15-6.738-15-15s6.738-15 15-15 15 6.738 15 15c0 8.261-6.738 15-15 15zm60 0c-8.262 0-15-6.738-15-15s6.738-15 15-15 15 6.738 15 15c0 8.261-6.738 15-15 15zm60 0c-8.261 0-15-6.738-15-15s6.738-15 15-15 15 6.738 15 15c0 8.261-6.738 15-15 15zm60 0c-8.261 0-15-6.738-15-15s6.738-15 15-15 15 6.738 15 15c0 8.261-6.739 15-15 15zm59.999 0c-8.261 0-15-6.738-15-15s6.738-15 15-15 15 6.738 15 15c.001 8.261-6.738 15-15 15z"/></svg>